<?xml version="1.0" encoding="UTF-8"?>
<!DOCTYPE svg PUBLIC "-//W3C//DTD SVG 1.1//EN" "http://www.w3.org/Graphics/SVG/1.1/DTD/svg11.dtd">
<svg xmlns="http://www.w3.org/2000/svg" version="1.1" width="720px" height="720px" style="shape-rendering:geometricPrecision; text-rendering:geometricPrecision; image-rendering:optimizeQuality; fill-rule:evenodd; clip-rule:evenodd" xmlns:xlink="http://www.w3.org/1999/xlink">
<g><path style="opacity:1" fill="#fefffe" d="M 299.5,193.5 C 307.507,193.334 315.507,193.5 323.5,194C 324,194.5 324.5,195 325,195.5C 326.594,222.805 326.928,250.138 326,277.5C 324.117,280.024 321.617,281.358 318.5,281.5C 319.947,287.549 317.614,291.049 311.5,292C 313.727,292.121 315.56,292.954 317,294.5C 317.667,297.833 317.667,301.167 317,304.5C 314.993,305.669 312.827,306.335 310.5,306.5C 310.5,310.167 310.5,313.833 310.5,317.5C 304.819,318.733 299.152,318.733 293.5,317.5C 292.513,314.232 292.18,310.898 292.5,307.5C 289.575,307.46 286.909,308.293 284.5,310C 282,312.5 279.5,315 277,317.5C 276.667,327.5 276.333,337.5 276,347.5C 272.055,361.433 262.888,367.266 248.5,365C 245.554,364.194 242.888,362.861 240.5,361C 197.667,323.5 154.833,286 112,248.5C 111.333,305.833 111.333,363.167 112,420.5C 117.59,429.263 117.923,438.263 113,447.5C 103.949,457.245 93.4495,459.078 81.5,453C 71.6942,443.957 69.8609,433.457 76,421.5C 77.9334,358.171 77.9334,294.837 76,231.5C 67.137,218.019 69.3037,206.519 82.5,197C 90.1787,193.669 97.8453,193.669 105.5,197C 150.646,233.978 195.646,271.145 240.5,308.5C 244.405,304.963 246.405,300.629 246.5,295.5C 261.512,294.189 276.512,292.689 291.5,291C 290.584,290.626 289.75,290.126 289,289.5C 288.503,286.854 288.336,284.187 288.5,281.5C 284.507,281.755 281.674,280.089 280,276.5C 279.333,249.833 279.333,223.167 280,196.5C 286.507,194.986 293.007,193.986 299.5,193.5 Z M 118.5,220.5 C 125.573,222.473 128.073,227.14 126,234.5C 121.934,238.601 117.434,239.601 112.5,237.5C 112.167,236.667 111.833,235.833 111.5,235C 113.653,231.509 115.82,228.009 118,224.5C 118.49,223.207 118.657,221.873 118.5,220.5 Z M 132.5,229.5 C 135.506,232.173 138.506,234.84 141.5,237.5C 135.466,238.474 132.466,235.808 132.5,229.5 Z M 126.5,240.5 C 129.841,240.656 132.674,241.989 135,244.5C 135.827,248.541 135.66,252.541 134.5,256.5C 129.855,253.023 125.355,249.356 121,245.5C 120.312,244.668 120.479,244.002 121.5,243.5C 123.396,242.725 125.063,241.725 126.5,240.5 Z M 145.5,242.5 C 151.803,245.613 157.47,249.779 162.5,255C 155.795,263.148 148.961,263.315 142,255.5C 141.175,251.789 141.341,248.122 142.5,244.5C 143.739,244.058 144.739,243.391 145.5,242.5 Z M 90.5,243.5 C 101.079,242.076 104.746,246.409 101.5,256.5C 99.1156,258.051 96.6156,259.385 94,260.5C 87.0976,258.807 84.4309,254.473 86,247.5C 87.2499,245.807 88.7499,244.473 90.5,243.5 Z M 101.5,263.5 C 102.117,263.611 102.617,263.944 103,264.5C 103.667,270.5 103.667,276.5 103,282.5C 101.622,280.787 99.9552,279.453 98,278.5C 97.3333,274.5 97.3333,270.5 98,266.5C 99.1451,265.364 100.312,264.364 101.5,263.5 Z M 161.5,263.5 C 165.052,265.204 168.219,267.538 171,270.5C 171.667,274.5 171.667,278.5 171,282.5C 169.806,283.43 168.473,284.097 167,284.5C 161.723,280.894 156.723,276.894 152,272.5C 151.28,270.888 151.446,269.388 152.5,268C 155.592,266.454 158.592,264.954 161.5,263.5 Z M 85.5,264.5 C 89.8069,265.664 91.4735,268.498 90.5,273C 91.3808,277.159 89.8808,279.992 86,281.5C 85.5006,275.843 85.3339,270.176 85.5,264.5 Z M 179.5,269.5 C 184.984,273.417 190.318,277.583 195.5,282C 186.298,290.223 180.298,288.389 177.5,276.5C 177.643,273.887 178.31,271.553 179.5,269.5 Z M 92.5,284.5 C 103.387,285.654 106.553,291.321 102,301.5C 99.9302,303.787 97.4302,305.453 94.5,306.5C 85.7593,303.607 82.926,297.607 86,288.5C 88.3143,287.267 90.4809,285.933 92.5,284.5 Z M 197.5,287.5 C 207.086,289.862 210.252,295.862 207,305.5C 204.327,308.002 201.327,310.002 198,311.5C 192.375,308.57 189.208,304.07 188.5,298C 188.833,296.167 189.167,294.333 189.5,292.5C 192.231,290.808 194.898,289.142 197.5,287.5 Z M 172.5,288.5 C 175.852,289.008 178.852,290.342 181.5,292.5C 182.641,294.421 182.808,296.421 182,298.5C 179.297,295.462 176.297,292.795 173,290.5C 172.536,289.906 172.369,289.239 172.5,288.5 Z M 213.5,296.5 C 217.166,299.997 220.999,303.331 225,306.5C 225.617,307.449 225.451,308.282 224.5,309C 220.493,311.837 216.993,311.004 214,306.5C 213.502,303.183 213.335,299.85 213.5,296.5 Z M 85.5,310.5 C 90.6434,311.322 92.6434,314.322 91.5,319.5C 92.0572,323.699 90.3906,326.366 86.5,327.5C 85.5046,321.872 85.1712,316.206 85.5,310.5 Z M 101.5,310.5 C 102.814,312.915 103.481,315.748 103.5,319C 103.167,321.833 102.833,324.667 102.5,327.5C 101.086,326.376 99.586,325.376 98,324.5C 97.3333,320.833 97.3333,317.167 98,313.5C 99.1451,312.364 100.312,311.364 101.5,310.5 Z M 209.5,311.5 C 211.546,313.279 213.713,314.946 216,316.5C 216.667,320.5 216.667,324.5 216,328.5C 211.326,324.657 206.826,320.657 202.5,316.5C 205.077,315.057 207.41,313.39 209.5,311.5 Z M 229.5,313.5 C 237.411,315.236 240.745,320.069 239.5,328C 236.088,329.455 232.921,331.288 230,333.5C 223.762,329.947 221.762,324.614 224,317.5C 226.015,316.303 227.849,314.97 229.5,313.5 Z M 91.5,331.5 C 103.122,332.144 106.456,337.81 101.5,348.5C 96.7082,353.767 91.8748,353.767 87,348.5C 86.1717,343.798 86.3384,339.131 87.5,334.5C 88.9014,333.479 90.2347,332.479 91.5,331.5 Z M 240.5,336.5 C 248.731,335.609 251.898,339.275 250,347.5C 248.723,349.731 246.889,351.398 244.5,352.5C 240.858,350.025 237.358,347.358 234,344.5C 233.219,343.056 233.386,341.723 234.5,340.5C 236.565,339.143 238.565,337.81 240.5,336.5 Z M 259.5,339.5 C 262.238,338.965 264.072,339.965 265,342.5C 265.667,345.167 265.667,347.833 265,350.5C 262.88,353.08 260.713,353.08 258.5,350.5C 257.012,346.57 257.346,342.904 259.5,339.5 Z M 102.5,355.5 C 103.817,361.346 103.817,367.346 102.5,373.5C 98.7123,371.258 97.0457,367.925 97.5,363.5C 97.6667,361.833 97.8333,360.167 98,358.5C 99.6516,357.601 101.152,356.601 102.5,355.5 Z M 85.5,356.5 C 90.3991,357.239 92.3991,360.072 91.5,365C 91.1667,366.833 90.8333,368.667 90.5,370.5C 88.7419,371.128 87.2419,372.128 86,373.5C 85.5006,367.843 85.3339,362.176 85.5,356.5 Z M 92.5,376.5 C 101.298,377.797 104.798,382.797 103,391.5C 97.4164,396.951 92.083,396.617 87,390.5C 84.4137,384.092 86.247,379.425 92.5,376.5 Z M 85.5,398.5 C 91.0445,400.986 93.0445,405.32 91.5,411.5C 90.0695,411.421 88.7362,411.754 87.5,412.5C 85.8864,407.98 85.2197,403.314 85.5,398.5 Z M 101.5,399.5 C 102.805,401.397 103.471,403.731 103.5,406.5C 103.333,408.833 103.167,411.167 103,413.5C 101.416,412.139 99.5824,411.472 97.5,411.5C 96.5872,406.59 97.9205,402.59 101.5,399.5 Z"/></g>
<g><path style="opacity:1" fill="#fefffe" d="M 576.5,300.5 C 619.314,300.48 644.814,321.48 653,363.5C 656.638,406.13 638.138,433.297 597.5,445C 556.136,448.565 529.636,430.398 518,390.5C 511.98,356.658 522.813,329.824 550.5,310C 558.581,304.921 567.247,301.754 576.5,300.5 Z M 582.5,330.5 C 607.972,333.14 621.305,347.307 622.5,373C 622.272,388.79 615.938,401.456 603.5,411C 586.265,419.62 571.099,416.787 558,402.5C 544.011,383.128 544.011,363.795 558,344.5C 564.823,337.343 572.989,332.676 582.5,330.5 Z"/></g>
<g><path style="opacity:1" fill="#fefffe" d="M 336.5,301.5 C 347.748,301.179 358.915,301.513 370,302.5C 387.185,349.064 403.685,395.897 419.5,443C 418.833,443.667 418.167,444.333 417.5,445C 406.833,445.667 396.167,445.667 385.5,445C 382.328,435.839 379.328,426.672 376.5,417.5C 360.5,417.5 344.5,417.5 328.5,417.5C 326.196,426.875 323.196,436.042 319.5,445C 309.167,445.667 298.833,445.667 288.5,445C 287.941,444.275 287.608,443.442 287.5,442.5C 302.713,395.081 319.047,348.081 336.5,301.5 Z M 352.5,338.5 C 357.868,354.947 362.868,371.613 367.5,388.5C 357.522,389.499 347.522,389.832 337.5,389.5C 342.347,372.444 347.347,355.444 352.5,338.5 Z"/></g>
<g><path style="opacity:1" fill="#fefffe" d="M 433.5,301.5 C 443.416,301.181 453.25,301.514 463,302.5C 463.5,339.832 463.667,377.165 463.5,414.5C 479.167,414.5 494.833,414.5 510.5,414.5C 510.5,424.833 510.5,435.167 510.5,445.5C 484.825,445.833 459.158,445.5 433.5,444.5C 433.291,396.741 433.291,349.074 433.5,301.5 Z"/></g>
</svg>
